<?xml version="1.0" encoding="iso-8859-1"?>
<!-- Generator: Adobe Illustrator 19.0.0, SVG Export Plug-In . SVG Version: 6.00 Build 0)  -->
<svg version="1.1" id="Capa_1" xmlns="http://www.w3.org/2000/svg" xmlns:xlink="http://www.w3.org/1999/xlink" x="0px" y="0px"
	 viewBox="0 0 480 480" style="enable-background:new 0 0 480 480;" xml:space="preserve">
<path style="fill:#FDBD40;" d="M40,88h400c17.673,0,32,14.327,32,32v240c0,17.673-14.327,32-32,32H40c-17.673,0-32-14.327-32-32V120
	C8,102.327,22.327,88,40,88z"/>
<g>
	<path style="fill:#5F79BA;" d="M240,240.04c-10.148-0.004-20.104-2.769-28.8-8L35.88,126.856c-3.745-2.344-4.882-7.28-2.538-11.025
		c2.284-3.65,7.048-4.838,10.778-2.687L219.424,218.32c12.658,7.624,28.494,7.624,41.152,0L435.88,113.144
		c3.745-2.344,8.682-1.208,11.025,2.538c2.344,3.745,1.208,8.682-2.538,11.025c-0.082,0.051-0.164,0.101-0.248,0.149L268.8,232.04
		C260.103,237.27,250.148,240.035,240,240.04L240,240.04z"/>
	<path style="fill:#5F79BA;" d="M40,368c-4.418,0-8-3.582-8-8V152c0-4.418,3.582-8,8-8s8,3.582,8,8v208
		C48,364.418,44.418,368,40,368z"/>
	<path style="fill:#5F79BA;" d="M440,368c-4.418,0-8-3.582-8-8V152c0-4.418,3.582-8,8-8s8,3.582,8,8v208
		C448,364.418,444.418,368,440,368z"/>
</g>
<path d="M440,80H40C17.92,80.026,0.026,97.92,0,120v240c0.026,22.08,17.92,39.974,40,40h400c22.08-0.026,39.974-17.92,40-40V120
	C479.974,97.92,462.08,80.026,440,80z M464,360c0,13.255-10.745,24-24,24H40c-13.255,0-24-10.745-24-24V120
	c0-13.255,10.745-24,24-24h400c13.255,0,24,10.745,24,24V360z"/>
<path d="M446.856,115.88c-2.276-3.786-7.189-5.011-10.976-2.736L260.576,218.32c-12.658,7.624-28.494,7.624-41.152,0L44.12,113.144
	c-3.828-2.207-8.72-0.893-10.927,2.934c-2.151,3.73-0.964,8.494,2.687,10.778L211.2,232.04c17.722,10.654,39.878,10.654,57.6,0
	l175.32-105.184C447.906,124.58,449.131,119.667,446.856,115.88L446.856,115.88z"/>
<path d="M40,144c-4.418,0-8,3.582-8,8v208c0,4.418,3.582,8,8,8s8-3.582,8-8V152C48,147.582,44.418,144,40,144z"/>
<path d="M440,144c-4.418,0-8,3.582-8,8v208c0,4.418,3.582,8,8,8s8-3.582,8-8V152C448,147.582,444.418,144,440,144z"/>
<g>
</g>
<g>
</g>
<g>
</g>
<g>
</g>
<g>
</g>
<g>
</g>
<g>
</g>
<g>
</g>
<g>
</g>
<g>
</g>
<g>
</g>
<g>
</g>
<g>
</g>
<g>
</g>
<g>
</g>
</svg>
